<svg width="86" height="86" viewBox="0 0 86 86" fill="none" xmlns="http://www.w3.org/2000/svg">
<path opacity="0.5" d="M13.5417 13.5421C17.3853 9.56253 21.983 6.38827 27.0665 4.20456C32.15 2.02085 37.6175 0.871426 43.15 0.823351C48.6825 0.775275 54.1691 1.82951 59.2898 3.92455C64.4105 6.01959 69.0626 9.11347 72.9748 13.0257C76.887 16.9379 79.9809 21.59 82.0759 26.7107C84.171 31.8314 85.2252 37.318 85.1771 42.8505C85.1291 48.383 83.9796 53.8505 81.7959 58.934C79.6122 64.0175 76.438 68.6152 72.4584 72.4588C68.6147 76.4384 64.0171 79.6126 58.9336 81.7964C53.8501 83.9801 48.3826 85.1295 42.8501 85.1776C37.3176 85.2256 31.831 84.1714 26.7103 82.0764C21.5896 79.9813 16.9374 76.8875 13.0252 72.9753C9.11304 69.0631 6.01916 64.4109 3.92412 59.2902C1.82908 54.1695 0.774849 48.6829 0.822922 43.1504C0.870995 37.6179 2.02042 32.1504 4.20413 27.0669C6.38784 21.9834 9.5621 17.3857 13.5417 13.5421ZM23.3875 56.7213C22.9896 57.1057 22.6721 57.5654 22.4538 58.0738C22.2354 58.5821 22.1205 59.1289 22.1157 59.6821C22.1108 60.2354 22.2163 60.784 22.4258 61.2961C22.6353 61.8082 22.9447 62.2734 23.3359 62.6646C23.7271 63.0558 24.1923 63.3652 24.7044 63.5747C25.2165 63.7842 25.7651 63.8896 26.3184 63.8848C26.8716 63.88 27.4184 63.7651 27.9267 63.5467C28.4351 63.3283 28.8948 63.0109 29.2792 62.613L43 48.8921L56.7209 62.613C57.5067 63.372 58.5592 63.7919 59.6517 63.7824C60.7442 63.7729 61.7892 63.3347 62.5618 62.5622C63.3343 61.7897 63.7725 60.7446 63.782 59.6521C63.7915 58.5596 63.3715 57.5071 62.6125 56.7213L48.8917 43.0005L62.6125 29.2796C63.3715 28.4938 63.7915 27.4413 63.782 26.3488C63.7725 25.2563 63.3343 24.2112 62.5618 23.4387C61.7892 22.6662 60.7442 22.228 59.6517 22.2185C58.5592 22.209 57.5067 22.629 56.7209 23.388L43 37.1088L29.2792 23.388C28.4934 22.629 27.4408 22.209 26.3484 22.2185C25.2559 22.228 24.2108 22.6662 23.4383 23.4387C22.6658 24.2112 22.2275 25.2563 22.2181 26.3488C22.2086 27.4413 22.6285 28.4938 23.3875 29.2796L37.1084 43.0005L23.3875 56.7213Z" fill="#F8D094"/>
</svg>
