<svg width="38" height="38" viewBox="0 0 38 38" fill="none" xmlns="http://www.w3.org/2000/svg">
<path d="M35.02 0H3.06311C2.24018 0 1.52393 0.303394 0.914361 0.910179C0.304787 1.51697 0 2.24511 0 3.09461V34.9054C0 35.7549 0.297167 36.483 0.891502 37.0898C1.48584 37.6966 2.20971 38 3.06311 38H20.9846V23.3461H17.7843V16.9749H20.9846V12.7425C20.9846 11.9537 21.0608 11.2407 21.2132 10.6036C21.5484 9.42036 22.1428 8.46467 22.9962 7.73653C24.1544 6.76567 25.7697 6.28024 27.8423 6.28024H32.8256V12.6515H28.4823C27.7508 12.6515 27.3851 13.0307 27.3851 13.7892V16.9749H32.6884L31.5912 23.3461H27.2937V38H34.9286C35.7515 38 36.4678 37.6966 37.0773 37.0898C37.6869 36.483 37.9917 35.7549 37.9917 34.9054V3.09461C38.0526 2.27545 37.7783 1.55489 37.1688 0.932934C36.5592 0.310978 35.8429 0 35.02 0Z" fill="black" fill-opacity="0.3"/>
</svg>
