<svg width="39" height="38" viewBox="0 0 39 38" fill="none" xmlns="http://www.w3.org/2000/svg">
<path d="M28.2101 0H10.3251C8.53504 0 6.86638 0.462677 5.31908 1.38802C3.77177 2.31337 2.54303 3.55729 1.63285 5.11976C0.722668 6.68224 0.267578 8.38882 0.267578 10.2395V27.7605C0.267578 29.5808 0.715083 31.2723 1.61009 32.8347C2.5051 34.3972 3.72626 35.6487 5.27357 36.5892C6.82087 37.5297 8.5047 38 10.3251 38H28.2101C30.0001 38 31.6688 37.5373 33.2161 36.612C34.7634 35.6866 35.9921 34.4427 36.9023 32.8802C37.8125 31.3178 38.2676 29.6112 38.2676 27.7605V10.2395C38.2676 8.38882 37.8201 6.68224 36.9251 5.11976C36.0301 3.55729 34.8165 2.31337 33.2843 1.38802C31.7522 0.462677 30.0608 0 28.2101 0ZM34.8999 27.3964C34.8999 28.6707 34.5889 29.8463 33.967 30.9234C33.345 32.0004 32.5107 32.8499 31.464 33.4719C30.4173 34.0938 29.272 34.4048 28.0281 34.4048H10.6436C9.39971 34.4048 8.24682 34.0862 7.18494 33.4491C6.12307 32.812 5.28115 31.9549 4.65919 30.8778C4.03724 29.8008 3.72626 28.6403 3.72626 27.3964V10.4671C3.72626 9.19282 4.03724 8.02475 4.65919 6.96288C5.28115 5.901 6.12307 5.0515 7.18494 4.41437C8.24682 3.77724 9.39971 3.45868 10.6436 3.45868H27.8915C29.1354 3.45868 30.2883 3.77724 31.3502 4.41437C32.4121 5.0515 33.254 5.90858 33.876 6.98563C34.4979 8.06268 34.8089 9.22315 34.8089 10.4671V27.3964H34.8999ZM19.3358 9.14731C17.6065 9.14731 16.0213 9.57964 14.5802 10.4443C13.139 11.309 11.9937 12.4846 11.1442 13.9713C10.2947 15.4579 9.86997 17.081 9.86997 18.8407C9.86997 20.6004 10.2947 22.216 11.1442 23.6874C11.9937 25.1589 13.139 26.3345 14.5802 27.2144C16.0213 28.0942 17.5989 28.5341 19.3131 28.5341C21.0273 28.5341 22.6125 28.0942 24.0688 27.2144C25.5251 26.3345 26.678 25.1589 27.5275 23.6874C28.377 22.216 28.8017 20.6004 28.8017 18.8407C28.8017 17.081 28.377 15.4579 27.5275 13.9713C26.678 12.4846 25.5251 11.309 24.0688 10.4443C22.6125 9.57964 21.0348 9.14731 19.3358 9.14731ZM19.3358 25.1665C18.2436 25.1665 17.2273 24.8858 16.2867 24.3246C15.3462 23.7633 14.5953 23.0124 14.034 22.0719C13.4728 21.1313 13.1921 20.0922 13.1921 18.9545C13.1921 17.8168 13.4728 16.7701 14.034 15.8144C14.5953 14.8587 15.3462 14.1002 16.2867 13.5389C17.2273 12.9776 18.2436 12.697 19.3358 12.697C20.4281 12.697 21.4444 12.9776 22.3849 13.5389C23.3255 14.1002 24.0688 14.8587 24.6149 15.8144C25.161 16.7701 25.434 17.8168 25.434 18.9545C25.434 20.0922 25.161 21.1313 24.6149 22.0719C24.0688 23.0124 23.3255 23.7633 22.3849 24.3246C21.4444 24.8858 20.4281 25.1665 19.3358 25.1665ZM29.3478 10.9222C29.9243 10.9222 30.4173 10.7022 30.8269 10.2623C31.2364 9.82236 31.4412 9.299 31.4412 8.69222C31.4412 8.08543 31.2364 7.56208 30.8269 7.12216C30.4173 6.68224 29.9243 6.46228 29.3478 6.46228C28.7714 6.46228 28.2708 6.68224 27.846 7.12216C27.4213 7.56208 27.2089 8.08543 27.2089 8.69222C27.2089 9.299 27.4213 9.82236 27.846 10.2623C28.2708 10.7022 28.7714 10.9222 29.3478 10.9222Z" fill="black" fill-opacity="0.3"/>
</svg>
