<svg width="34" height="38" viewBox="0 0 34 38" fill="none" xmlns="http://www.w3.org/2000/svg">
<path d="M29.3495 8.14611C29.0764 7.99441 28.8186 7.84272 28.5758 7.69102C27.878 7.23593 27.2409 6.68982 26.6645 6.0527C25.5116 4.7481 24.7986 3.26148 24.5255 1.59282C24.4649 1.1984 24.4345 0.819164 24.4345 0.45509C24.4345 0.151699 24.4345 0 24.4345 0H17.9267V25.212L17.8812 26.4407C17.8205 27.3509 17.5399 28.1928 17.0393 28.9665C16.5387 29.7401 15.8864 30.3621 15.0824 30.8323C14.2784 31.3026 13.3834 31.5377 12.3974 31.5377C11.4114 31.5377 10.4936 31.2874 9.6441 30.7868C8.7946 30.2862 8.12713 29.6112 7.64171 28.7617C7.15628 27.9122 6.91356 26.9868 6.91356 25.9856C6.91356 24.9844 7.15628 24.0591 7.64171 23.2096C8.12713 22.3601 8.7946 21.6926 9.6441 21.2072C10.4936 20.7218 11.419 20.479 12.4201 20.479C12.9966 20.479 13.5579 20.5549 14.104 20.7066V14.1078C12.4353 13.8651 10.7894 13.9864 9.16626 14.4719C7.5431 14.9573 6.07923 15.7461 4.77464 16.8383C3.65209 17.8092 2.72674 18.9469 1.99859 20.2515C1.6952 20.7673 1.43731 21.3589 1.22494 22.0263C0.830528 23.1792 0.602984 24.4156 0.542305 25.7353C0.481626 27.0551 0.724341 28.5038 1.27045 30.0814C1.39181 30.4758 1.57384 30.9158 1.81656 31.4012C2.18063 32.1293 2.57504 32.7665 2.99979 33.3126C3.81895 34.3441 4.75947 35.2391 5.82135 35.9976V35.9521L5.86686 35.9976C7.17145 36.8774 8.67324 37.4691 10.3722 37.7725C11.2217 37.9242 11.9347 38 12.5112 38L12.6932 37.9545C14.4529 37.9242 16.0457 37.5752 17.4716 36.9078C18.5335 36.392 19.5196 35.7246 20.4297 34.9054C20.8848 34.511 21.2337 34.1621 21.4764 33.8587C22.417 32.7968 23.1451 31.5832 23.6609 30.218C23.9036 29.5505 24.1008 28.7617 24.2525 27.8515C24.3738 27.1537 24.4345 26.5621 24.4345 26.0766V12.697L25.5722 13.4707L26.0728 13.7437C26.4673 13.9561 26.9072 14.1685 27.3926 14.3808C28.0601 14.6539 28.7427 14.8814 29.4405 15.0635C30.5934 15.3669 31.9283 15.5489 33.4453 15.6096V9.14731C32.9902 9.17764 32.4138 9.11697 31.716 8.96527C30.8968 8.81357 30.108 8.54052 29.3495 8.14611Z" fill="black" fill-opacity="0.3"/>
</svg>
