<svg width="54" height="55" viewBox="0 0 54 55" fill="none" xmlns="http://www.w3.org/2000/svg">
<path d="M13.1048 8.80818L27.0008 22.7042L40.8248 8.88018C41.1301 8.55516 41.498 8.29516 41.9063 8.11577C42.3145 7.93637 42.7549 7.84127 43.2008 7.83618C44.1556 7.83618 45.0712 8.21547 45.7464 8.8906C46.4215 9.56573 46.8008 10.4814 46.8008 11.4362C46.8092 11.8775 46.7273 12.316 46.5601 12.7246C46.393 13.1331 46.1441 13.5032 45.8288 13.8122L31.8248 27.6362L45.8288 41.6402C46.4221 42.2206 46.77 43.0067 46.8008 43.8362C46.8008 44.791 46.4215 45.7066 45.7464 46.3818C45.0712 47.0569 44.1556 47.4362 43.2008 47.4362C42.742 47.4552 42.2842 47.3786 41.8566 47.2113C41.429 47.044 41.0408 46.7895 40.7168 46.4642L27.0008 32.5682L13.1408 46.4282C12.8366 46.7424 12.4732 46.9932 12.0716 47.1662C11.67 47.3392 11.2381 47.431 10.8008 47.4362C9.846 47.4362 8.93033 47.0569 8.2552 46.3818C7.58007 45.7066 7.20078 44.791 7.20078 43.8362C7.19239 43.3948 7.27428 42.9564 7.44142 42.5478C7.60857 42.1392 7.85745 41.7691 8.17278 41.4602L22.1768 27.6362L8.17278 13.6322C7.57945 13.0517 7.23152 12.2657 7.20078 11.4362C7.20078 10.4814 7.58007 9.56573 8.2552 8.8906C8.93033 8.21547 9.846 7.83618 10.8008 7.83618C11.6648 7.84698 12.4928 8.19618 13.1048 8.80818Z" fill="#DC2C14"/>
</svg>
